# xmcd CD database file
#
# Track frame offsets:
#	150
#	30878
#	57013
#	87450
#	112923
#	132763
#	156839
#	176566
#	207903
#	240302
#	266039
#
# Disc length: 3922 seconds
#
# Revision: 0
# Processed by: cddbd v1.5.2PL0 Copyright (c) Steve Scherf et al.
# Submitted via: CDex 1.70beta2
#
DISCID=850f500b
DTITLE=Chuck Loeb - Between 2 Worlds
DYEAR=2009
DGENRE=Jazz
TTITLE0=Let's Go
TTITLE1=Hiram
TTITLE2=Mittens
TTITLE3=Between 2 Worlds
TTITLE4=Oh No You Didn't
TTITLE5=Let's Play
TTITLE6=Sò Tinha De Que Ser Com Vocè
TTITLE7=The Great Hall
TTITLE8=Mean Old Man
TTITLE9=360
TTITLE10=Early Turns To Late
EXTD=YEAR: 2009
EXTT0=
EXTT1=
EXTT2=
EXTT3=
EXTT4=
EXTT5=
EXTT6=
EXTT7=
EXTT8=
EXTT9=
EXTT10=
PLAYORDER=
